<svg xmlns="http://www.w3.org/2000/svg" width="32.53" height="31.674" viewBox="0 0 32.53 31.674">
  <g id="그룹_591" data-name="그룹 591" transform="translate(-353.861 -92.711)">
    <path id="패스_359" data-name="패스 359" d="M3939.44,136.633s1.695-12.129,5.808-12.129,7.113,21.163,7.113,21.163" transform="translate(-3567.101 -25.68)" fill="none" stroke="#000" stroke-linecap="round" stroke-linejoin="round" stroke-width="2"/>
    <path id="패스_361" data-name="패스 361" d="M6.672,12.623l-.048.035-.059.035-.047.028c-.02.011-.039.02-.06.029l-.052.025-.058.021c-.019.007-.038.015-.059.021l-.057.014-.062.016c-.022,0-.044.006-.065.009l-.057.008a1.187,1.187,0,0,1-.119.006H5.917c-.039,0-.078,0-.118-.006l-.056-.008-.066-.01-.061-.016-.058-.014c-.021-.006-.039-.014-.059-.02l-.058-.021-.052-.024c-.02-.009-.04-.018-.06-.029s-.031-.018-.047-.027l-.059-.036-.048-.035-.05-.039c-.026-.021-.05-.043-.074-.066L5.032,12.5.369,7.839A1.261,1.261,0,1,1,2.152,6.056l2.51,2.511V1.261a1.261,1.261,0,1,1,2.521,0V8.567L9.695,6.056a1.261,1.261,0,0,1,1.783,1.783L6.814,12.5c-.005.006-.012.011-.018.017C6.772,12.541,6.689,12.61,6.672,12.623Z" transform="translate(354.861 102.97) rotate(-60)"/>
    <path id="패스_362" data-name="패스 362" d="M0,9.015,27.566,26.33H0Z" transform="translate(354.861 97.054)" stroke="#000" stroke-linecap="round" stroke-linejoin="round" stroke-width="2"/>
  </g>
</svg>
