<svg xmlns="http://www.w3.org/2000/svg" width="36.506" height="52.157" viewBox="0 0 36.506 52.157">
  <path id="패스_352" data-name="패스 352" d="M293.983,116.7a1.825,1.825,0,0,1-1.824,1.822H259.3a1.825,1.825,0,0,1-1.824-1.822V83.9a1.825,1.825,0,0,1,1.824-1.821h32.858a1.825,1.825,0,0,1,1.824,1.821ZM270.038,66.679c-.018-.015-.037-.028-.055-.041l-.052-.038-.064-.038c-.017-.011-.034-.021-.051-.03s-.042-.022-.064-.031l-.057-.027-.063-.023c-.021-.008-.041-.016-.063-.023l-.062-.015-.068-.017c-.024,0-.047-.007-.071-.01s-.041-.007-.061-.009a1.284,1.284,0,0,0-.129-.007h-.013c-.042,0-.084,0-.127.007l-.06.008c-.024,0-.047.006-.072.011l-.066.017c-.022,0-.043.009-.063.015s-.042.015-.063.022l-.063.023-.056.026c-.022.01-.044.02-.065.032s-.033.02-.051.03-.043.025-.064.039l-.052.038c-.018.014-.036.027-.055.042s-.054.046-.08.071l-.02.019-5.042,5.041a1.363,1.363,0,1,0,1.928,1.927l2.714-2.714v7.9a1.363,1.363,0,1,0,2.726,0v-7.9l2.715,2.715a1.363,1.363,0,0,0,1.928-1.927l-5.042-5.041c-.006-.007-.013-.012-.019-.018C270.091,66.725,270.065,66.7,270.038,66.679Zm11.487,14.277c.018.015.037.027.055.041s.034.027.052.038.042.026.063.038l.051.031c.021.011.043.021.064.031l.057.027c.02.008.042.015.063.022s.041.016.063.022l.062.016.068.017.071.011c.02,0,.04.007.061.008a1.223,1.223,0,0,0,.128.007h.013c.042,0,.085,0,.128-.007.02,0,.04-.006.06-.008l.072-.011.066-.017c.021,0,.042-.01.063-.016s.042-.014.063-.022l.064-.023.056-.027.065-.031c.018-.01.034-.02.05-.03s.044-.025.064-.039.035-.025.052-.038.036-.026.054-.041.054-.047.079-.071l.02-.019,5.041-5.041a1.363,1.363,0,1,0-1.928-1.927l-2.714,2.715v-7.9a1.363,1.363,0,1,0-2.726,0v7.9L278.312,73.9a1.363,1.363,0,1,0-1.928,1.927l5.042,5.041.02.018C281.472,80.909,281.5,80.933,281.525,80.956Zm6.328,32.593-2-8.655a1.994,1.994,0,0,0-1.938-1.513h-3.88a8.33,8.33,0,0,0-2.112-2.328V95.392a2.01,2.01,0,0,0-2.891-1.787l-3.995,2a1.98,1.98,0,0,0-1.1,1.787v2.555a.347.347,0,0,0-.037.011,8.322,8.322,0,1,0,11.335,7.421h1.118l1.617,7.142a2,2,0,0,0,3.889-.917l-.013-.053Zm-14.92.485a6.318,6.318,0,0,1-2.989-11.888v2.567a1.994,1.994,0,1,0,3.988.073q0-.036,0-.073v-3.267a.985.985,0,0,0,.152.044,6.326,6.326,0,0,1-1.151,12.546Zm3.329-28.63a3,3,0,1,0,3,3A3,3,0,0,0,276.262,85.4Z" transform="translate(-257.477 -66.369)"/>
</svg>
