<svg xmlns="http://www.w3.org/2000/svg" width="53.097" height="47.945" viewBox="0 0 53.097 47.945">
  <g id="그룹_582" data-name="그룹 582" transform="translate(-520.942 -229.197)">
    <g id="그룹_577" data-name="그룹 577" transform="translate(168.938)">
      <path id="패스_347" data-name="패스 347" d="M3956.52,259.9h5.817l-4.229,10.241h-11.018Z" transform="translate(-3595.087 7)"/>
      <path id="패스_348" data-name="패스 348" d="M3952.908,259.9h-5.817l4.229,10.241h11.018Z" transform="translate(-3557.236 7)"/>
      <path id="패스_349" data-name="패스 349" d="M3963.488,259.9h5.994l1.929,9.935h-10.7Z" transform="translate(-3587.541 7)"/>
    </g>
    <path id="physical-disability-01" d="M70.017,29.536A4.536,4.536,0,1,1,65.481,25,4.536,4.536,0,0,1,70.017,29.536ZM58.57,53.351H68.883L64.631,63.557h4.914L73.07,55.1a4.536,4.536,0,0,0-4.187-6.281H63.049l4.162-11.446L64.8,36.347s-.639-.237-1.111-.391a31.722,31.722,0,0,0-3.876-.993,26.184,26.184,0,0,0-11.963.331l-2.181.623,1.246,4.362,2.181-.623a20.779,20.779,0,0,1,8.377-.477L54.363,47.17A4.536,4.536,0,0,0,58.57,53.351Zm5.55,3.4A11.341,11.341,0,1,1,53.007,43.144l-1.79,4.774a6.805,6.805,0,1,0,8.207,8.834Z" transform="translate(489.945 204.197)" fill-rule="evenodd"/>
  </g>
</svg>
